<svg width="230" height="230" viewBox="0 0 230 230" fill="none" xmlns="http://www.w3.org/2000/svg">
<rect width="230" height="230" rx="12" fill="#2D3845"/>
<path d="M30.22 52L36.5 37.9H38.22L44.52 52H42.4L40.92 48.56H33.78L32.32 52H30.22ZM37.34 40.2L34.52 46.88H40.22L37.38 40.2H37.34ZM46.2466 52V42.24H48.2666V46.18H53.1266V42.24H55.1466V52H53.1266V47.78H48.2666V52H46.2466ZM61.3006 52.18C60.6206 52.18 60.014 52.0467 59.4806 51.78C58.9473 51.5133 58.5206 51.1533 58.2006 50.7C57.894 50.2467 57.7406 49.7333 57.7406 49.16C57.7406 48.44 57.9206 47.8733 58.2806 47.46C58.654 47.0467 59.2606 46.7467 60.1006 46.56C60.954 46.3733 62.1006 46.28 63.5406 46.28H64.2206V45.76C64.2206 45 64.0606 44.4533 63.7406 44.12C63.4206 43.7867 62.894 43.62 62.1606 43.62C61.6006 43.62 61.0406 43.7067 60.4806 43.88C59.9206 44.04 59.3473 44.3 58.7606 44.66L58.1406 43.24C58.6473 42.88 59.2806 42.5933 60.0406 42.38C60.8006 42.1667 61.5273 42.06 62.2206 42.06C63.554 42.06 64.5406 42.38 65.1806 43.02C65.8206 43.6467 66.1406 44.6333 66.1406 45.98V52H64.2406V50.38C64.0006 50.94 63.6273 51.38 63.1206 51.7C62.614 52.02 62.0073 52.18 61.3006 52.18ZM61.7006 50.74C62.4206 50.74 63.0206 50.4867 63.5006 49.98C63.9806 49.4733 64.2206 48.8333 64.2206 48.06V47.52H63.5606C62.5873 47.52 61.8206 47.5667 61.2606 47.66C60.714 47.7533 60.3206 47.9133 60.0806 48.14C59.854 48.3533 59.7406 48.6533 59.7406 49.04C59.7406 49.5467 59.914 49.96 60.2606 50.28C60.6073 50.5867 61.0873 50.74 61.7006 50.74ZM68.7172 52.26L68.0372 50.66C68.6239 50.42 69.0839 50.0933 69.4172 49.68C69.7505 49.2533 69.9905 48.6667 70.1372 47.92C70.2839 47.16 70.3572 46.18 70.3572 44.98V42.24H77.7972V52H75.7772V43.86H72.2372V45.04C72.2372 46.5067 72.1172 47.7267 71.8772 48.7C71.6372 49.6733 71.2572 50.4467 70.7372 51.02C70.2305 51.58 69.5572 51.9933 68.7172 52.26ZM80.8364 52V42.24H82.6764V49.32L87.9564 42.24H89.6564V52H87.8164V44.94L82.5364 52H80.8364ZM94.7319 52V43.86H91.2919V42.24H100.212V43.86H96.7519V52H94.7319ZM101.833 52V42.24H103.673V49.32L108.953 42.24H110.653V52H108.813V44.94L103.533 52H101.833ZM113.688 52V42.24H115.708V46.2H117.348L120.368 42.24H122.568L119.268 46.62C119.588 46.7667 119.881 46.9933 120.148 47.3C120.428 47.5933 120.715 48 121.008 48.52L123.028 52H120.868L119.168 49.08C118.861 48.56 118.561 48.2133 118.268 48.04C117.988 47.8667 117.595 47.78 117.088 47.78H115.708V52H113.688ZM127.648 52.18C126.968 52.18 126.362 52.0467 125.828 51.78C125.295 51.5133 124.868 51.1533 124.548 50.7C124.242 50.2467 124.088 49.7333 124.088 49.16C124.088 48.44 124.268 47.8733 124.628 47.46C125.002 47.0467 125.608 46.7467 126.448 46.56C127.302 46.3733 128.448 46.28 129.888 46.28H130.568V45.76C130.568 45 130.408 44.4533 130.088 44.12C129.768 43.7867 129.242 43.62 128.508 43.62C127.948 43.62 127.388 43.7067 126.828 43.88C126.268 44.04 125.695 44.3 125.108 44.66L124.488 43.24C124.995 42.88 125.628 42.5933 126.388 42.38C127.148 42.1667 127.875 42.06 128.568 42.06C129.902 42.06 130.888 42.38 131.528 43.02C132.168 43.6467 132.488 44.6333 132.488 45.98V52H130.588V50.38C130.348 50.94 129.975 51.38 129.468 51.7C128.962 52.02 128.355 52.18 127.648 52.18ZM128.048 50.74C128.768 50.74 129.368 50.4867 129.848 49.98C130.328 49.4733 130.568 48.8333 130.568 48.06V47.52H129.908C128.935 47.52 128.168 47.5667 127.608 47.66C127.062 47.7533 126.668 47.9133 126.428 48.14C126.202 48.3533 126.088 48.6533 126.088 49.04C126.088 49.5467 126.262 49.96 126.608 50.28C126.955 50.5867 127.435 50.74 128.048 50.74Z" fill="white"/>
<rect opacity="0.7" x="0.25" y="199.25" width="229.5" height="0.5" stroke="#3C4A5A" stroke-width="0.5" stroke-dasharray="2 4 2 4"/>
<rect opacity="0.7" x="0.25" y="169.25" width="229.5" height="0.5" stroke="#3C4A5A" stroke-width="0.5" stroke-dasharray="2 4 2 4"/>
<rect opacity="0.7" x="0.25" y="139.25" width="229.5" height="0.5" stroke="#3C4A5A" stroke-width="0.5" stroke-dasharray="2 4 2 4"/>
<rect opacity="0.7" x="0.25" y="109.25" width="229.5" height="0.5" stroke="#3C4A5A" stroke-width="0.5" stroke-dasharray="2 4 2 4"/>
<rect x="30" y="159" width="6" height="20" rx="3" fill="#379BAD"/>
<rect x="32" y="156" width="2" height="26" rx="1" fill="#379BAD"/>
<rect x="50" y="147" width="2" height="30" rx="1" fill="#30A73B"/>
<rect x="48" y="156" width="6" height="12" rx="3" fill="#30A73B"/>
<rect x="66" y="155" width="6" height="8" rx="3" fill="#379BAD"/>
<rect x="68" y="153" width="2" height="12" rx="1" fill="#379BAD"/>
<rect x="84" y="137" width="6" height="12" rx="3" fill="#379BAD"/>
<rect x="86" y="125" width="2" height="26" rx="1" fill="#379BAD"/>
<rect x="102" y="142" width="6" height="16" rx="3" fill="#30A73B"/>
<rect x="104" y="137" width="2" height="27" rx="1" fill="#30A73B"/>
<rect x="120" y="132" width="6" height="20" rx="3" fill="#30A73B"/>
<rect x="122" y="127" width="2" height="36" rx="1" fill="#30A73B"/>
<rect x="138" y="112" width="6" height="7" rx="3" fill="#30A73B"/>
<rect x="140" y="106" width="2" height="15" rx="1" fill="#30A73B"/>
<rect x="158" y="104" width="2" height="30" rx="1" fill="#379BAD"/>
<rect x="156" y="109" width="6" height="17" rx="3" fill="#379BAD"/>
<rect x="174" y="100" width="6" height="11" rx="3" fill="#379BAD"/>
<rect x="176" y="95" width="2" height="30" rx="1" fill="#379BAD"/>
<rect x="192" y="82" width="6" height="31" rx="3" fill="#30A73B"/>
<rect x="194" y="81" width="2" height="37" rx="1" fill="#30A73B"/>
<path fill-rule="evenodd" clip-rule="evenodd" d="M191.239 167.673C197.47 173.904 197.47 184.007 191.239 190.239C185.008 196.47 174.905 196.47 168.673 190.239C162.442 184.007 162.442 173.904 168.673 167.673C174.905 161.442 185.008 161.442 191.239 167.673ZM196.581 188.074C200.534 180.875 199.46 171.652 193.36 165.552C185.958 158.149 173.955 158.149 166.552 165.552C159.149 172.955 159.149 184.957 166.552 192.36C172.652 198.46 181.876 199.533 189.075 195.58L190.12 196.625L201.939 208.444C204.012 210.517 207.373 210.517 209.445 208.444C211.518 206.372 211.518 203.011 209.445 200.938L197.626 189.119L196.581 188.074ZM192.241 194.504L195.505 191.24L207.324 203.059C208.225 203.961 208.225 205.422 207.324 206.323C206.423 207.224 204.962 207.224 204.06 206.323L192.241 194.504Z" fill="#56677A"/>
</svg>
