<svg width="230" height="230" viewBox="0 0 230 230" fill="none" xmlns="http://www.w3.org/2000/svg">
<g clip-path="url(#clip0_2627_23667)">
<rect width="230" height="230" rx="12" fill="#2D3845"/>
<path d="M31.64 52V37.9H33.72V44.04H35.98L39.94 37.9H42.24L37.94 44.38C38.5 44.5933 38.9933 44.9267 39.42 45.38C39.8467 45.82 40.2267 46.3733 40.56 47.04L42.98 52H40.74L38.82 47.9C38.46 47.14 38.04 46.6 37.56 46.28C37.08 45.9467 36.4867 45.78 35.78 45.78H33.72V52H31.64ZM48.7683 52.18C47.7816 52.18 46.9283 51.9733 46.2083 51.56C45.4883 51.1467 44.9283 50.5667 44.5283 49.82C44.1416 49.06 43.9483 48.16 43.9483 47.12C43.9483 46.08 44.1416 45.1867 44.5283 44.44C44.9283 43.68 45.4883 43.0933 46.2083 42.68C46.9283 42.2667 47.7816 42.06 48.7683 42.06C49.7283 42.06 50.5683 42.2667 51.2883 42.68C52.0083 43.0933 52.5683 43.68 52.9683 44.44C53.3683 45.1867 53.5683 46.08 53.5683 47.12C53.5683 48.16 53.3683 49.06 52.9683 49.82C52.5683 50.5667 52.0083 51.1467 51.2883 51.56C50.5683 51.9733 49.7283 52.18 48.7683 52.18ZM48.7683 50.62C49.5949 50.62 50.2616 50.32 50.7683 49.72C51.2749 49.12 51.5283 48.2533 51.5283 47.12C51.5283 45.9867 51.2749 45.1267 50.7683 44.54C50.2616 43.94 49.5949 43.64 48.7683 43.64C47.9283 43.64 47.2549 43.94 46.7483 44.54C46.2416 45.1267 45.9883 45.9867 45.9883 47.12C45.9883 48.2533 46.2416 49.12 46.7483 49.72C47.2549 50.32 47.9283 50.62 48.7683 50.62ZM56.0513 52V42.24H58.0713V46.18H62.9313V42.24H64.9513V52H62.9313V47.78H58.0713V52H56.0513ZM70.0053 52V43.86H66.5653V42.24H75.4853V43.86H72.0253V52H70.0053ZM77.1259 55.6V42.24H79.1059V43.9C79.3859 43.34 79.8126 42.8933 80.3859 42.56C80.9593 42.2267 81.6193 42.06 82.3659 42.06C83.2326 42.06 83.9859 42.2667 84.6259 42.68C85.2793 43.0933 85.7793 43.68 86.1259 44.44C86.4859 45.1867 86.6659 46.08 86.6659 47.12C86.6659 48.16 86.4859 49.06 86.1259 49.82C85.7793 50.58 85.2793 51.1667 84.6259 51.58C83.9859 51.98 83.2326 52.18 82.3659 52.18C81.6459 52.18 80.9993 52.0267 80.4259 51.72C79.8659 51.4 79.4393 50.9667 79.1459 50.42V55.6H77.1259ZM81.8659 50.62C82.7059 50.62 83.3726 50.32 83.8659 49.72C84.3726 49.12 84.6259 48.2533 84.6259 47.12C84.6259 45.9867 84.3726 45.1267 83.8659 44.54C83.3726 43.94 82.7059 43.64 81.8659 43.64C81.0259 43.64 80.3526 43.94 79.8459 44.54C79.3526 45.1267 79.1059 45.9867 79.1059 47.12C79.1059 48.2533 79.3526 49.12 79.8459 49.72C80.3526 50.32 81.0259 50.62 81.8659 50.62ZM93.3972 52.18C92.4105 52.18 91.5572 51.9733 90.8372 51.56C90.1172 51.1467 89.5572 50.5667 89.1572 49.82C88.7705 49.06 88.5772 48.16 88.5772 47.12C88.5772 46.08 88.7705 45.1867 89.1572 44.44C89.5572 43.68 90.1172 43.0933 90.8372 42.68C91.5572 42.2667 92.4105 42.06 93.3972 42.06C94.3572 42.06 95.1972 42.2667 95.9172 42.68C96.6372 43.0933 97.1972 43.68 97.5972 44.44C97.9972 45.1867 98.1972 46.08 98.1972 47.12C98.1972 48.16 97.9972 49.06 97.5972 49.82C97.1972 50.5667 96.6372 51.1467 95.9172 51.56C95.1972 51.9733 94.3572 52.18 93.3972 52.18ZM93.3972 50.62C94.2239 50.62 94.8905 50.32 95.3972 49.72C95.9039 49.12 96.1572 48.2533 96.1572 47.12C96.1572 45.9867 95.9039 45.1267 95.3972 44.54C94.8905 43.94 94.2239 43.64 93.3972 43.64C92.5572 43.64 91.8839 43.94 91.3772 44.54C90.8705 45.1267 90.6172 45.9867 90.6172 47.12C90.6172 48.2533 90.8705 49.12 91.3772 49.72C91.8839 50.32 92.5572 50.62 93.3972 50.62ZM100.065 52.26L99.3848 50.66C99.9715 50.42 100.432 50.0933 100.765 49.68C101.098 49.2533 101.338 48.6667 101.485 47.92C101.632 47.16 101.705 46.18 101.705 44.98V42.24H109.145V52H107.125V43.86H103.585V45.04C103.585 46.5067 103.465 47.7267 103.225 48.7C102.985 49.6733 102.605 50.4467 102.085 51.02C101.578 51.58 100.905 51.9933 100.065 52.26ZM112.184 52V42.24H114.204V45.62H116.984C118.237 45.62 119.191 45.8933 119.844 46.44C120.497 46.9733 120.824 47.7533 120.824 48.78C120.824 49.7667 120.484 50.5533 119.804 51.14C119.124 51.7133 118.184 52 116.984 52H112.184ZM114.204 50.62H116.724C117.417 50.62 117.957 50.4733 118.344 50.18C118.731 49.8733 118.924 49.4067 118.924 48.78C118.924 48.1667 118.731 47.72 118.344 47.44C117.957 47.1467 117.417 47 116.724 47H114.204V50.62ZM31.52 82V72.24H40.36V82H38.34V73.86H33.54V82H31.52ZM43.3955 85.6V72.24H45.3755V73.9C45.6555 73.34 46.0821 72.8933 46.6555 72.56C47.2288 72.2267 47.8888 72.06 48.6355 72.06C49.5021 72.06 50.2555 72.2667 50.8955 72.68C51.5488 73.0933 52.0488 73.68 52.3955 74.44C52.7555 75.1867 52.9355 76.08 52.9355 77.12C52.9355 78.16 52.7555 79.06 52.3955 79.82C52.0488 80.58 51.5488 81.1667 50.8955 81.58C50.2555 81.98 49.5021 82.18 48.6355 82.18C47.9155 82.18 47.2688 82.0267 46.6955 81.72C46.1355 81.4 45.7088 80.9667 45.4155 80.42V85.6H43.3955ZM48.1355 80.62C48.9755 80.62 49.6421 80.32 50.1355 79.72C50.6421 79.12 50.8955 78.2533 50.8955 77.12C50.8955 75.9867 50.6421 75.1267 50.1355 74.54C49.6421 73.94 48.9755 73.64 48.1355 73.64C47.2955 73.64 46.6221 73.94 46.1155 74.54C45.6221 75.1267 45.3755 75.9867 45.3755 77.12C45.3755 78.2533 45.6221 79.12 46.1155 79.72C46.6221 80.32 47.2955 80.62 48.1355 80.62ZM59.6667 82.18C58.6801 82.18 57.8267 81.9733 57.1067 81.56C56.3867 81.1467 55.8267 80.5667 55.4267 79.82C55.0401 79.06 54.8467 78.16 54.8467 77.12C54.8467 76.08 55.0401 75.1867 55.4267 74.44C55.8267 73.68 56.3867 73.0933 57.1067 72.68C57.8267 72.2667 58.6801 72.06 59.6667 72.06C60.6267 72.06 61.4667 72.2667 62.1867 72.68C62.9067 73.0933 63.4667 73.68 63.8667 74.44C64.2667 75.1867 64.4667 76.08 64.4667 77.12C64.4667 78.16 64.2667 79.06 63.8667 79.82C63.4667 80.5667 62.9067 81.1467 62.1867 81.56C61.4667 81.9733 60.6267 82.18 59.6667 82.18ZM59.6667 80.62C60.4934 80.62 61.1601 80.32 61.6667 79.72C62.1734 79.12 62.4267 78.2533 62.4267 77.12C62.4267 75.9867 62.1734 75.1267 61.6667 74.54C61.1601 73.94 60.4934 73.64 59.6667 73.64C58.8267 73.64 58.1534 73.94 57.6467 74.54C57.1401 75.1267 56.8867 75.9867 56.8867 77.12C56.8867 78.2533 57.1401 79.12 57.6467 79.72C58.1534 80.32 58.8267 80.62 59.6667 80.62ZM65.9497 84.6V80.4H67.0297C67.4564 79.76 67.763 79.02 67.9497 78.18C68.1364 77.3267 68.2297 76.2933 68.2297 75.08V72.24H75.4497V80.4H77.0097V84.6H75.2897V82H67.6897V84.6H65.9497ZM68.9097 80.4H73.5297V73.82H69.9897V75.5C69.9897 76.42 69.8964 77.3133 69.7097 78.18C69.523 79.0467 69.2564 79.7867 68.9097 80.4ZM82.16 82.18C81.48 82.18 80.8733 82.0467 80.34 81.78C79.8067 81.5133 79.38 81.1533 79.06 80.7C78.7533 80.2467 78.6 79.7333 78.6 79.16C78.6 78.44 78.78 77.8733 79.14 77.46C79.5133 77.0467 80.12 76.7467 80.96 76.56C81.8133 76.3733 82.96 76.28 84.4 76.28H85.08V75.76C85.08 75 84.92 74.4533 84.6 74.12C84.28 73.7867 83.7533 73.62 83.02 73.62C82.46 73.62 81.9 73.7067 81.34 73.88C80.78 74.04 80.2067 74.3 79.62 74.66L79 73.24C79.5067 72.88 80.14 72.5933 80.9 72.38C81.66 72.1667 82.3867 72.06 83.08 72.06C84.4133 72.06 85.4 72.38 86.04 73.02C86.68 73.6467 87 74.6333 87 75.98V82H85.1V80.38C84.86 80.94 84.4867 81.38 83.98 81.7C83.4733 82.02 82.8667 82.18 82.16 82.18ZM82.56 80.74C83.28 80.74 83.88 80.4867 84.36 79.98C84.84 79.4733 85.08 78.8333 85.08 78.06V77.52H84.42C83.4467 77.52 82.68 77.5667 82.12 77.66C81.5733 77.7533 81.18 77.9133 80.94 78.14C80.7133 78.3533 80.6 78.6533 80.6 79.04C80.6 79.5467 80.7733 79.96 81.12 80.28C81.4667 80.5867 81.9467 80.74 82.56 80.74ZM88.4366 82L90.4566 78.52C90.7632 77.9867 91.0499 77.5733 91.3166 77.28C91.5966 76.9733 91.9032 76.7533 92.2366 76.62L88.8966 72.24H91.0966L94.1166 76.2H95.5166V72.24H97.5366V76.2H98.9166L101.937 72.24H104.117L100.797 76.62C101.13 76.7533 101.43 76.9733 101.697 77.28C101.977 77.5867 102.27 78 102.577 78.52L104.597 82H102.437L100.737 79.08C100.43 78.56 100.13 78.2133 99.8366 78.04C99.5566 77.8667 99.1699 77.78 98.6766 77.78H97.5366V82H95.5166V77.78H94.3766C93.8699 77.78 93.4699 77.8667 93.1766 78.04C92.8966 78.2133 92.6032 78.56 92.2966 79.08L90.5966 82H88.4366Z" fill="white"/>
<path d="M-4 182.5L0.495525 176.506C2.23536 174.186 5.38522 173.443 7.97881 174.739L11.8321 176.666C14.0438 177.772 16.7073 177.408 18.5409 175.749L25.1878 169.735C25.7248 169.249 26.3454 168.864 27.0194 168.6L36.6729 164.807C38.7228 164.002 40.1668 162.138 40.4345 159.952L42.002 147.151C42.4835 143.218 46.7559 140.988 50.2571 142.842V142.842C51.0733 143.274 51.7711 143.9 52.2896 144.664L58.1829 153.349C59.8135 155.751 62.9309 156.642 65.5846 155.462L73.3365 152.017C74.1036 151.676 74.9338 151.5 75.7733 151.5H88.4925C90.9185 151.5 93.1057 150.039 94.0349 147.798L100.661 131.817C100.886 131.275 101.189 130.769 101.56 130.316L106.647 124.099C108.562 121.757 111.922 121.208 114.483 122.818L126.036 130.08C126.993 130.681 128.099 131 129.229 131H146.144C147.353 131 148.534 130.635 149.532 129.952L173.759 113.375C175.464 112.209 177.65 112.001 179.545 112.827L193.602 118.955C195.131 119.621 196.869 119.621 198.398 118.955L213.908 112.194C214.948 111.741 215.838 111.002 216.475 110.063L234.5 83.5" stroke="#379BAD" stroke-width="2"/>
<g opacity="0.6">
<path d="M30.42 196L31.308 194.464C31.54 194.048 31.844 193.772 32.22 193.636C31.724 193.556 31.344 193.372 31.08 193.084C30.816 192.788 30.684 192.404 30.684 191.932C30.684 191.388 30.868 190.956 31.236 190.636C31.604 190.308 32.152 190.144 32.88 190.144H35.676V196H34.548V193.864H33.792C33.512 193.864 33.272 193.94 33.072 194.092C32.872 194.236 32.708 194.416 32.58 194.632L31.8 196H30.42ZM33.132 193.036H34.548V190.972H33.132C32.692 190.972 32.368 191.064 32.16 191.248C31.952 191.424 31.848 191.672 31.848 191.992C31.848 192.32 31.952 192.576 32.16 192.76C32.368 192.944 32.692 193.036 33.132 193.036ZM37.4979 196V190.144H38.7099V192.508H41.6259V190.144H42.8379V196H41.6259V193.468H38.7099V196H37.4979ZM44.6464 196V190.144H47.6344C48.3544 190.144 48.8784 190.28 49.2064 190.552C49.5424 190.816 49.7104 191.192 49.7104 191.68C49.7104 191.984 49.6224 192.252 49.4464 192.484C49.2784 192.708 49.0464 192.872 48.7504 192.976C49.1184 193.064 49.4024 193.232 49.6024 193.48C49.8024 193.728 49.9024 194.024 49.9024 194.368C49.9024 194.872 49.7144 195.272 49.3384 195.568C48.9624 195.856 48.4264 196 47.7304 196H44.6464ZM45.7864 192.628H47.5504C47.8784 192.628 48.1304 192.552 48.3064 192.4C48.4904 192.248 48.5824 192.04 48.5824 191.776C48.5824 191.504 48.4904 191.296 48.3064 191.152C48.1304 191.008 47.8784 190.936 47.5504 190.936H45.7864V192.628ZM45.7864 195.22H47.6584C48.4104 195.22 48.7864 194.916 48.7864 194.308C48.7864 193.708 48.4104 193.408 47.6584 193.408H45.7864V195.22Z" fill="white"/>
<path d="M82.618 198.16V195.112C82.314 195.776 81.794 196.108 81.058 196.108C80.634 196.108 80.258 195.984 79.93 195.736C79.61 195.488 79.358 195.136 79.174 194.68C78.998 194.224 78.91 193.688 78.91 193.072C78.91 192.448 78.998 191.912 79.174 191.464C79.358 191.008 79.61 190.656 79.93 190.408C80.258 190.16 80.634 190.036 81.058 190.036C81.426 190.036 81.742 190.124 82.006 190.3C82.27 190.476 82.474 190.72 82.618 191.032V187.54H83.83V191.02C83.974 190.708 84.178 190.468 84.442 190.3C84.706 190.124 85.018 190.036 85.378 190.036C85.802 190.036 86.174 190.16 86.494 190.408C86.822 190.656 87.074 191.008 87.25 191.464C87.434 191.912 87.526 192.448 87.526 193.072C87.526 193.688 87.434 194.224 87.25 194.68C87.074 195.136 86.826 195.488 86.506 195.736C86.186 195.984 85.81 196.108 85.378 196.108C84.658 196.108 84.142 195.78 83.83 195.124V198.16H82.618ZM81.382 195.184C81.766 195.184 82.07 195.008 82.294 194.656C82.526 194.304 82.642 193.776 82.642 193.072C82.642 192.376 82.526 191.852 82.294 191.5C82.07 191.148 81.766 190.972 81.382 190.972C81.006 190.972 80.702 191.148 80.47 191.5C80.238 191.852 80.122 192.376 80.122 193.072C80.122 193.776 80.234 194.304 80.458 194.656C80.69 195.008 80.998 195.184 81.382 195.184ZM85.054 195.184C85.438 195.184 85.742 195.008 85.966 194.656C86.198 194.304 86.314 193.776 86.314 193.072C86.314 192.376 86.198 191.852 85.966 191.5C85.742 191.148 85.438 190.972 85.054 190.972C84.67 190.972 84.366 191.148 84.142 191.5C83.918 191.852 83.806 192.376 83.806 193.072C83.806 193.776 83.918 194.304 84.142 194.656C84.366 195.008 84.67 195.184 85.054 195.184ZM91.7794 196.108C90.8194 196.108 90.0634 195.84 89.5114 195.304C88.9594 194.76 88.6834 194.02 88.6834 193.084C88.6834 192.484 88.8034 191.956 89.0434 191.5C89.2914 191.036 89.6314 190.676 90.0634 190.42C90.4954 190.164 90.9914 190.036 91.5514 190.036C92.3594 190.036 92.9954 190.296 93.4594 190.816C93.9234 191.328 94.1554 192.036 94.1554 192.94V193.348H89.8594C89.9474 194.564 90.5914 195.172 91.7914 195.172C92.1274 195.172 92.4554 195.12 92.7754 195.016C93.1034 194.912 93.4114 194.74 93.6994 194.5L94.0594 195.34C93.7954 195.58 93.4554 195.768 93.0394 195.904C92.6234 196.04 92.2034 196.108 91.7794 196.108ZM91.5994 190.888C91.0954 190.888 90.6954 191.044 90.3994 191.356C90.1034 191.668 89.9234 192.084 89.8594 192.604H93.1354C93.1114 192.06 92.9674 191.64 92.7034 191.344C92.4394 191.04 92.0714 190.888 91.5994 190.888ZM95.5936 196V190.144H98.5816C99.3016 190.144 99.8256 190.28 100.154 190.552C100.49 190.816 100.658 191.192 100.658 191.68C100.658 191.984 100.57 192.252 100.394 192.484C100.226 192.708 99.9936 192.872 99.6976 192.976C100.066 193.064 100.35 193.232 100.55 193.48C100.75 193.728 100.85 194.024 100.85 194.368C100.85 194.872 100.662 195.272 100.286 195.568C99.9096 195.856 99.3736 196 98.6776 196H95.5936ZM96.7336 192.628H98.4976C98.8256 192.628 99.0776 192.552 99.2536 192.4C99.4376 192.248 99.5296 192.04 99.5296 191.776C99.5296 191.504 99.4376 191.296 99.2536 191.152C99.0776 191.008 98.8256 190.936 98.4976 190.936H96.7336V192.628ZM96.7336 195.22H98.6056C99.3576 195.22 99.7336 194.916 99.7336 194.308C99.7336 193.708 99.3576 193.408 98.6056 193.408H96.7336V195.22Z" fill="white"/>
<path d="M130.578 196V190.144H131.574L133.698 193.852L135.81 190.144H136.806V196H135.738V192.028L133.986 195.052H133.398L131.646 192.028V196H130.578ZM140.513 196.108C140.105 196.108 139.741 196.028 139.421 195.868C139.101 195.708 138.845 195.492 138.653 195.22C138.469 194.948 138.377 194.64 138.377 194.296C138.377 193.864 138.485 193.524 138.701 193.276C138.925 193.028 139.289 192.848 139.793 192.736C140.305 192.624 140.993 192.568 141.857 192.568H142.265V192.256C142.265 191.8 142.169 191.472 141.977 191.272C141.785 191.072 141.469 190.972 141.029 190.972C140.693 190.972 140.357 191.024 140.021 191.128C139.685 191.224 139.341 191.38 138.989 191.596L138.617 190.744C138.921 190.528 139.301 190.356 139.757 190.228C140.213 190.1 140.649 190.036 141.065 190.036C141.865 190.036 142.457 190.228 142.841 190.612C143.225 190.988 143.417 191.58 143.417 192.388V196H142.277V195.028C142.133 195.364 141.909 195.628 141.605 195.82C141.301 196.012 140.937 196.108 140.513 196.108ZM140.753 195.244C141.185 195.244 141.545 195.092 141.833 194.788C142.121 194.484 142.265 194.1 142.265 193.636V193.312H141.869C141.285 193.312 140.825 193.34 140.489 193.396C140.161 193.452 139.925 193.548 139.781 193.684C139.645 193.812 139.577 193.992 139.577 194.224C139.577 194.528 139.681 194.776 139.889 194.968C140.097 195.152 140.385 195.244 140.753 195.244ZM145.227 198.16V190.144H146.415V191.14C146.583 190.804 146.839 190.536 147.183 190.336C147.527 190.136 147.923 190.036 148.371 190.036C148.891 190.036 149.343 190.16 149.727 190.408C150.119 190.656 150.419 191.008 150.627 191.464C150.843 191.912 150.951 192.448 150.951 193.072C150.951 193.696 150.843 194.236 150.627 194.692C150.419 195.148 150.119 195.5 149.727 195.748C149.343 195.988 148.891 196.108 148.371 196.108C147.939 196.108 147.551 196.016 147.207 195.832C146.871 195.64 146.615 195.38 146.439 195.052V198.16H145.227ZM148.071 195.172C148.575 195.172 148.975 194.992 149.271 194.632C149.575 194.272 149.727 193.752 149.727 193.072C149.727 192.392 149.575 191.876 149.271 191.524C148.975 191.164 148.575 190.984 148.071 190.984C147.567 190.984 147.163 191.164 146.859 191.524C146.563 191.876 146.415 192.392 146.415 193.072C146.415 193.752 146.563 194.272 146.859 194.632C147.163 194.992 147.567 195.172 148.071 195.172Z" fill="white"/>
<path d="M181.796 196.108C181.388 196.108 181.024 196.028 180.704 195.868C180.384 195.708 180.128 195.492 179.936 195.22C179.752 194.948 179.66 194.64 179.66 194.296C179.66 193.864 179.768 193.524 179.984 193.276C180.208 193.028 180.572 192.848 181.076 192.736C181.588 192.624 182.276 192.568 183.14 192.568H183.548V192.256C183.548 191.8 183.452 191.472 183.26 191.272C183.068 191.072 182.752 190.972 182.312 190.972C181.976 190.972 181.64 191.024 181.304 191.128C180.968 191.224 180.624 191.38 180.272 191.596L179.9 190.744C180.204 190.528 180.584 190.356 181.04 190.228C181.496 190.1 181.932 190.036 182.348 190.036C183.148 190.036 183.74 190.228 184.124 190.612C184.508 190.988 184.7 191.58 184.7 192.388V196H183.56V195.028C183.416 195.364 183.192 195.628 182.888 195.82C182.584 196.012 182.22 196.108 181.796 196.108ZM182.036 195.244C182.468 195.244 182.828 195.092 183.116 194.788C183.404 194.484 183.548 194.1 183.548 193.636V193.312H183.152C182.568 193.312 182.108 193.34 181.772 193.396C181.444 193.452 181.208 193.548 181.064 193.684C180.928 193.812 180.86 193.992 180.86 194.224C180.86 194.528 180.964 194.776 181.172 194.968C181.38 195.152 181.668 195.244 182.036 195.244ZM186.498 196V190.144H191.802V196H190.59V191.116H187.71V196H186.498ZM193.623 198.16V190.144H194.811V191.14C194.979 190.804 195.235 190.536 195.579 190.336C195.923 190.136 196.319 190.036 196.767 190.036C197.287 190.036 197.739 190.16 198.123 190.408C198.515 190.656 198.815 191.008 199.023 191.464C199.239 191.912 199.347 192.448 199.347 193.072C199.347 193.696 199.239 194.236 199.023 194.692C198.815 195.148 198.515 195.5 198.123 195.748C197.739 195.988 197.287 196.108 196.767 196.108C196.335 196.108 195.947 196.016 195.603 195.832C195.267 195.64 195.011 195.38 194.835 195.052V198.16H193.623ZM196.467 195.172C196.971 195.172 197.371 194.992 197.667 194.632C197.971 194.272 198.123 193.752 198.123 193.072C198.123 192.392 197.971 191.876 197.667 191.524C197.371 191.164 196.971 190.984 196.467 190.984C195.963 190.984 195.559 191.164 195.255 191.524C194.959 191.876 194.811 192.392 194.811 193.072C194.811 193.752 194.959 194.272 195.255 194.632C195.559 194.992 195.963 195.172 196.467 195.172Z" fill="white"/>
</g>
</g>
<defs>
<clipPath id="clip0_2627_23667">
<rect width="230" height="230" rx="12" fill="white"/>
</clipPath>
</defs>
</svg>
